<?xml version="1.0" encoding="UTF-8"?>
<svg width="26px" height="30px" viewBox="0 0 26 30" version="1.1" xmlns="http://www.w3.org/2000/svg" xmlns:xlink="http://www.w3.org/1999/xlink">
    <!-- Generator: Sketch 50.2 (55047) - http://www.bohemiancoding.com/sketch -->
    <title>审核</title>
    <desc>Created with Sketch.</desc>
    <defs></defs>
    <g id="视觉" stroke="none" stroke-width="1" fill="none" fill-rule="evenodd">
        <g id="iconfont" transform="translate(-286.000000, -277.000000)" fill="#2159D6" fill-rule="nonzero">
            <g id="审核" transform="translate(282.000000, 275.000000)">
                <rect id="Rectangle-path" opacity="0" x="0" y="0" width="34" height="34"></rect>
                <path d="M21,4.25 C21,4.94035594 21.5596441,5.5 22.25,5.5 C22.9403559,5.5 23.5,4.94035594 23.5,4.25 C23.5,3.55964406 22.9403559,3 22.25,3 C21.5596441,3 21,3.55964406 21,4.25 Z" id="Shape"></path>
                <path d="M27.8344612,21.2763673 L27.7803227,21.2763673 C27.7803227,21.2763673 23.4729308,21.232748 21.4021343,17.5922156 C20.1467985,15.0555866 21.2498699,13.2906834 21.7168142,12.7068561 C21.7777199,12.6397495 21.8386257,12.5726429 21.8961478,12.502181 L21.9029151,12.4954703 C22.6743883,11.5828207 23.1954711,10.4520747 23.3545029,9.21060284 C23.3646538,9.15356224 23.3680375,9.09652164 23.3680375,9.03612571 C23.3680375,8.4522984 22.8875586,7.97919696 22.2954191,7.97919696 C21.7269651,7.97919696 21.2600208,8.41874511 21.2261843,8.96901913 C21.0942218,9.93870932 20.6340448,10.8043843 19.9606976,11.4519629 C19.9437793,11.4653842 19.91671,11.5022928 19.91671,11.5022928 C19.8591879,11.5828207 19.5275898,12.0458562 19.2873503,12.492115 C18.086153,14.9347948 18.7459656,18.0216978 20.5393024,20.1389106 C21.6525247,21.3065653 23.2293077,22.7359356 26.8396668,23.4204228 L26.8396668,23.4237781 C27.4013535,23.4640421 27.8446122,23.9304328 27.8446122,24.4941282 L27.8446122,25.530925 C27.8446122,25.5477016 27.8310776,25.5644782 27.8107756,25.5644782 L6.18245705,25.5644782 C6.16553878,25.5644782 6.14862051,25.5510569 6.14862051,25.530925 L6.14862051,24.4941282 C6.14862051,23.9539201 6.55465903,23.504306 7.08250911,23.4304888 L7.07912546,23.4237781 C10.7030193,22.7392909 12.2831858,21.3099206 13.3997918,20.1389106 C15.1931286,18.0216978 15.8529412,14.9347948 14.6517439,12.492115 C14.4859448,12.1163181 14.3269131,11.8680237 14.0156169,11.4922268 L14.0054659,11.4821608 C14.0088496,11.4855162 14.0122332,11.4888715 14.0190005,11.4922268 C14.0190005,11.4922268 13.799063,11.2674198 13.9513274,11.4284756 C13.1595523,10.6567498 12.6689224,9.57968907 12.6689224,8.38854714 C12.6689224,6.03310592 14.5942218,4.1239235 16.9695471,4.1239235 C17.0710567,4.1239235 17.1725664,4.12727883 17.2706923,4.13398949 C17.3112962,4.13734482 17.3519001,4.14070015 17.3925039,4.14070015 C17.9880271,4.14070015 18.468506,3.66424337 18.468506,3.07706073 C18.468506,2.48987809 17.9880271,2.01342132 17.3925039,2.01342132 C17.2537741,2.00335533 17.1116606,2 16.9695471,2 C13.4133264,2 10.5304529,4.85874063 10.5304529,8.38519181 C10.5304529,10.0695672 11.1868818,11.5995974 12.2628839,12.7404094 C12.7467465,13.3645006 13.7686101,15.1059166 12.5437272,17.5821496 C10.4729308,21.2293927 6.16553878,21.2763673 6.16553878,21.2763673 C4.97449245,21.2763673 4,22.2427022 4,23.4237781 L4,27.6783358 C4,27.6951124 4.01691827,27.7118891 4.03383654,27.7118891 L8.34122853,27.7118891 C8.3209266,27.7118891 8.30739198,27.7286657 8.30739198,27.7454423 L8.30739198,29.8525892 C8.30739198,31.0336651 9.28188444,32 10.4729308,32 L23.4695471,32 C24.6605934,32 25.6350859,31.0336651 25.6350859,29.8525892 L25.6350859,27.7454423 C25.6350859,27.7286657 25.6215513,27.7118891 25.6012493,27.7118891 L29.9661635,27.7118891 C29.9830817,27.7118891 30,27.6951124 30,27.6783358 L30,23.4237781 C30,22.2427022 29.0255075,21.2763673 27.8344612,21.2763673 Z M23.5033837,28.7822391 C23.5033837,29.3727771 23.0161374,29.8559445 22.4206143,29.8559445 L11.5218636,29.8559445 C10.9263404,29.8559445 10.4390942,29.3727771 10.4390942,28.7822391 L10.4390942,27.7118891 L23.5033837,27.7118891 L23.5033837,28.7822391 Z" id="Shape"></path>
            </g>
        </g>
    </g>
</svg>