<?xml version="1.0" encoding="UTF-8"?>
<svg width="102px" height="102px" viewBox="0 0 102 102" version="1.1" xmlns="http://www.w3.org/2000/svg" xmlns:xlink="http://www.w3.org/1999/xlink">
    <!-- Generator: Sketch 50.2 (55047) - http://www.bohemiancoding.com/sketch -->
    <title>Shape</title>
    <desc>Created with Sketch.</desc>
    <defs></defs>
    <g id="视觉" stroke="none" stroke-width="1" fill="none" fill-rule="evenodd">
        <g id="iconfont" transform="translate(-305.000000, -272.000000)" fill="#000000" fill-rule="nonzero">
            <path d="M356.000231,272 C327.950133,272 305,294.950043 305,323.000288 C305,351.050072 327.950133,374 356.000346,374 C384.049983,374 407,351.050072 407,323.000288 C407,294.949928 384.049983,272 356.000346,272 L356.000231,272 Z M357.27502,287.299913 C376.718818,287.299913 376.718818,301.96272 376.718818,310.249841 C376.718818,318.53777 369.068697,333.837684 357.27502,334.156064 C345.800069,334.156064 337.831222,318.856266 337.831222,310.249841 C337.831337,301.962605 337.831222,287.299913 357.27502,287.299913 Z M356.000346,371.13123 C341.337556,371.13123 327.950133,364.437165 319.025107,353.918957 C320.299896,350.731115 321.893758,347.224892 324.125187,345.312648 C328.906196,341.487237 343.249913,335.112359 343.249913,335.112359 L352.174939,352.325094 L353.768686,348.181187 L351.218761,343.0811 L356.318842,337.981475 L361.418922,343.0811 L359.187377,348.499798 L360.462628,352.64382 L369.706265,335.750043 C369.706265,335.750043 384.049867,342.124805 388.831337,345.950216 C391.062305,347.543618 392.656167,350.412734 393.612461,352.962316 C385.006277,364.118784 371.300012,371.13123 356.000231,371.13123 L356.000346,371.13123 Z" id="Shape"></path>
        </g>
    </g>
</svg>