<?xml version="1.0" standalone="no"?><!DOCTYPE svg PUBLIC "-//W3C//DTD SVG 1.1//EN" "http://www.w3.org/Graphics/SVG/1.1/DTD/svg11.dtd"><svg t="1540178565251" class="icon" style="" viewBox="0 0 1024 1024" version="1.1" xmlns="http://www.w3.org/2000/svg" p-id="2252" xmlns:xlink="http://www.w3.org/1999/xlink" width="200" height="200"><defs><style type="text/css"></style></defs><path d="M947.547511 338.244344h-41.701357C868.778281 143.638009 706.606335 0 512 0S155.221719 143.638009 118.153846 338.244344h-41.701357c-18.533937 0-37.067873 13.900452-37.067874 37.067873v611.61991c0 18.533937 13.900452 37.067873 37.067874 37.067873h871.095022c18.533937 0 37.067873-13.900452 37.067874-37.067873V375.312217c0-23.167421-18.533937-37.067873-37.067874-37.067873zM512 74.135747c157.538462 0 287.276018 111.20362 324.343891 264.108597H187.656109c37.067873-152.904977 166.80543-264.108597 324.343891-264.108597z m398.479638 333.610859v537.484163H113.520362V407.746606" p-id="2253" fill="#8a8a8a"></path><path d="M474.932127 579.18552h74.135746V787.692308h-74.135746z" p-id="2254" fill="#8a8a8a"></path></svg>